<svg width="480" height="410" viewBox="0 0 480 410" fill="none" xmlns="http://www.w3.org/2000/svg">
<path d="M-10 0H275C388.218 0 480 91.7816 480 205V205C480 318.218 388.218 410 275 410H-10V0Z" fill="url(#paint0_linear_1_243)"/>
<circle cx="190.805" cy="190.805" r="192.575" transform="matrix(-1 0 0 1 439.805 14.1964)" stroke="url(#paint1_linear_1_243)" stroke-width="3.53893"/>
<path opacity="0.7" d="M102.529 156.455C75.7179 237.348 119.561 324.66 200.454 351.472C281.348 378.283 368.66 334.44 395.471 253.546C422.283 172.652 378.44 85.3402 297.546 58.5291C216.652 31.718 129.34 75.5607 102.529 156.455Z" stroke="url(#paint2_linear_1_243)" stroke-width="3.13821"/>
<path d="M154.293 354.572L128.058 332.853L111.729 350.098L137.964 371.817L154.293 354.572Z" fill="#FE7C6E"/>
<path d="M154.064 354.785C154.063 354.795 153.905 354.805 153.605 354.813C153.274 354.818 152.837 354.825 152.292 354.834C151.116 354.839 149.475 354.845 147.46 354.854C143.348 354.841 137.72 354.824 131.486 354.805L131.354 354.804L131.334 354.68C131.319 354.586 131.303 354.484 131.287 354.381C130.359 348.454 129.52 343.09 128.907 339.169C128.621 337.244 128.389 335.675 128.222 334.552C128.151 334.029 128.095 333.611 128.052 333.294C128.017 333.006 128.004 332.853 128.015 332.851C128.025 332.849 128.06 332.998 128.116 333.282C128.174 333.596 128.251 334.011 128.346 334.529C128.537 335.648 128.804 337.21 129.132 339.127C129.77 343.044 130.641 348.401 131.605 354.322C131.621 354.424 131.638 354.527 131.653 354.621L131.502 354.497C137.734 354.552 143.36 354.601 147.471 354.637C149.483 354.67 151.123 354.696 152.297 354.715C152.842 354.73 153.277 354.742 153.608 354.751C153.908 354.763 154.064 354.774 154.064 354.785Z" fill="white"/>
<path d="M111.727 349.914C111.717 349.83 115.903 349.088 121.077 348.256C126.252 347.423 130.455 346.817 130.466 346.901C130.477 346.984 126.292 347.727 121.116 348.559C115.943 349.392 111.739 349.998 111.727 349.914Z" fill="white"/>
<path d="M139.708 354.25C139.795 354.253 139.53 358.188 139.116 363.037C138.703 367.888 138.297 371.816 138.21 371.813C138.123 371.809 138.388 367.875 138.802 363.025C139.215 358.176 139.621 354.246 139.708 354.25Z" fill="white"/>
<path d="M335.19 67.3817L304.679 52.8826L293.542 72.8395L324.053 87.3386L335.19 67.3817Z" fill="#FE7C6E"/>
<path d="M334.955 67.5349C334.957 67.5449 334.809 67.5907 334.525 67.6687C334.211 67.7511 333.798 67.8597 333.281 67.9951C332.164 68.2742 330.604 68.6641 328.689 69.1427C324.773 70.0911 319.414 71.3893 313.478 72.8273L313.353 72.8577L313.303 72.7451C313.265 72.6593 313.224 72.5663 313.183 72.4731C310.828 67.0853 308.697 62.2097 307.139 58.6448C306.389 56.8915 305.778 55.4626 305.34 54.4393C305.143 53.9614 304.985 53.579 304.866 53.2894C304.761 53.0251 304.71 52.8839 304.72 52.8795C304.73 52.875 304.8 53.0072 304.924 53.2631C305.057 53.5466 305.233 53.9207 305.452 54.3885C305.912 55.4015 306.555 56.8166 307.343 58.5525C308.923 62.1074 311.083 66.9697 313.471 72.3425C313.512 72.4358 313.553 72.5288 313.591 72.6146L313.416 72.5324C319.36 71.1286 324.725 69.8614 328.645 68.9356C330.568 68.4959 332.135 68.1379 333.257 67.8814C333.778 67.7686 334.196 67.6783 334.513 67.6098C334.801 67.5508 334.953 67.5247 334.955 67.5349Z" fill="white"/>
<path d="M293.535 72.734C293.504 72.6571 297.302 70.9773 302.018 68.9819C306.736 66.986 310.584 65.4308 310.615 65.5077C310.646 65.5844 306.849 67.2641 302.131 69.2599C297.415 71.2552 293.566 72.8107 293.535 72.734Z" fill="white"/>
<path d="M321.261 70.4208C321.344 70.4038 322.065 74.1752 322.873 78.8433C323.681 83.5131 324.268 87.3112 324.185 87.3284C324.102 87.3454 323.38 83.5748 322.573 78.905C321.765 74.2369 321.178 70.4378 321.261 70.4208Z" fill="white"/>
<path d="M147.332 235.499C70.0462 231.435 83.7486 182.846 105.52 189.557C128.83 196.743 102.127 232.989 76.4988 220.449C60.4191 212.581 36.0015 165.568 89.8738 127.294" stroke="#BEBEBE" stroke-width="0.643493" stroke-dasharray="3.22 3.22"/>
<path d="M156.242 190.089L354.249 166.305L383.656 300.366L178.026 321.602L156.242 190.089Z" fill="#6058B2"/>
<path d="M155.338 191.038L236.539 103.624C239.977 99.9225 245.708 99.2817 250.259 102.088L354.832 166.587" fill="#6F68B6"/>
<path d="M177.224 320.168C176.943 319.969 189.418 301.33 205.084 278.541C220.756 255.745 233.684 237.432 233.966 237.631C234.248 237.83 221.775 256.466 206.104 279.262C190.437 302.051 177.505 320.367 177.224 320.168Z" fill="#31548E"/>
<path d="M382.434 296.789C382.226 297.036 364.22 282.202 342.222 263.661C320.215 245.113 302.551 229.882 302.76 229.635C302.967 229.388 320.97 244.22 342.976 262.767C364.974 281.307 382.642 296.542 382.434 296.789Z" fill="#31548E"/>
<g opacity="0.5">
<g opacity="0.5">
<g opacity="0.5">
<path opacity="0.5" d="M355.885 167.544L270.733 257.997C270.057 258.716 268.937 258.847 268.04 258.314L156.43 191.972" fill="black"/>
</g>
</g>
</g>
<path d="M172.957 200.488C170.424 198.993 168.65 196.487 168.136 193.679L159.351 145.641C158.421 140.559 161.803 135.945 166.923 135.308L321.315 116.1C326.396 115.468 331.307 118.989 332.355 124.015L342.998 175.053C343.603 177.953 342.797 180.88 340.824 182.953L274.762 252.377C271.843 255.445 267.027 255.995 263.145 253.704L172.957 200.488Z" fill="#FAFAFA"/>
<mask id="mask0_1_243" style="mask-type:alpha" maskUnits="userSpaceOnUse" x="160" y="116" width="186" height="139">
<path d="M173.766 201.419C171.194 199.949 169.4 197.421 168.904 194.567L160.719 147.509C159.835 142.423 163.25 137.774 168.364 137.102L324.721 116.549C329.79 115.882 334.655 119.371 335.661 124.395L345.675 174.404C346.265 177.352 345.403 180.335 343.355 182.432L275.647 251.746C272.73 254.733 268.042 255.303 264.245 253.132L173.766 201.419Z" fill="#FAFAFA"/>
</mask>
<g mask="url(#mask0_1_243)">
<rect width="143.066" height="9.99664" rx="2.88914" transform="matrix(0.989357 -0.14068 0.142345 0.989039 177.253 209.246)" fill="#DEE3EB"/>
<rect width="143.066" height="9.99664" rx="2.88914" transform="matrix(0.989357 -0.14068 0.142345 0.989039 179.467 224.725)" fill="#DEE3EB"/>
</g>
<rect width="43.4347" height="9.84521" rx="2.88914" transform="matrix(0.989922 -0.141616 0.141614 0.989922 168.462 148.041)" fill="#8C84DD"/>
<rect x="170.594" y="162.947" width="143.045" height="9.84521" rx="2.88914" transform="rotate(-8.14132 170.594 162.947)" fill="#DEE3EB"/>
<rect x="172.808" y="178.426" width="143.045" height="9.84521" rx="2.88914" transform="rotate(-8.14132 172.808 178.426)" fill="#DEE3EB"/>
<rect x="175.022" y="193.905" width="143.045" height="9.84521" rx="2.88914" transform="rotate(-8.14132 175.022 193.905)" fill="#DEE3EB"/>
<g filter="url(#filter0_d_1_243)">
<rect x="290.009" y="238.047" width="126.125" height="100.327" rx="15.1199" transform="rotate(-8.89611 290.009 238.047)" fill="#FAFAFA"/>
<path d="M316.728 271.888C315.18 262.996 322.515 262.551 321.593 257.253C321.362 255.929 320.499 253.337 316.881 253.843C312.862 254.406 313.187 257.461 313.319 258.218L307.892 258.978C307.662 257.654 307.112 250.947 316.157 249.681C325.403 248.386 326.789 255.169 327.02 256.493C328.172 263.115 320.699 265.13 321.786 271.374L316.761 272.077L316.728 271.888ZM317.479 278.566C317.413 278.188 316.985 275.728 320 275.306C322.814 274.912 323.443 277.343 323.509 277.722C323.64 278.478 323.568 280.427 320.955 280.793C318.342 281.158 317.61 279.323 317.479 278.566V278.566Z" fill="#DADDDD"/>
<rect x="329.871" y="257.919" width="31.2707" height="6.94904" rx="3.47452" transform="rotate(-8.89611 329.871 257.919)" fill="#ADB6B6"/>
<rect x="331.792" y="270.192" width="80.2615" height="6.68845" rx="3.34423" transform="rotate(-8.89611 331.792 270.192)" fill="#DADDDD"/>
<rect x="307.348" y="291.668" width="107.493" height="13.8547" rx="2.7862" transform="rotate(-8.89611 307.348 291.668)" fill="#F2F4F5" stroke="#8C84DD" stroke-width="0.477747"/>
<rect x="310.178" y="311.293" width="107.971" height="14.3324" rx="3.02507" transform="rotate(-8.89611 310.178 311.293)" fill="#F2F4F5"/>
<path d="M313.495 298.427L314.469 294.82L314.88 294.756L316.914 297.891L316.408 297.971L315.925 297.204L314.218 297.471L313.997 298.348L313.495 298.427ZM314.756 295.339L314.332 297.041L315.695 296.828L314.766 295.337L314.756 295.339Z" fill="#263238"/>
<path d="M317.199 318.155L316.672 314.784L318.078 314.564C318.428 314.509 318.711 314.545 318.927 314.671C319.146 314.794 319.277 314.994 319.32 315.271C319.348 315.453 319.325 315.617 319.25 315.762C319.175 315.908 319.059 316.024 318.903 316.111C319.105 316.131 319.271 316.201 319.401 316.322C319.531 316.442 319.612 316.607 319.645 316.817C319.692 317.117 319.628 317.364 319.452 317.558C319.28 317.748 319.017 317.871 318.663 317.926L317.199 318.155ZM317.38 316.182L318.232 316.049C318.697 315.976 318.901 315.758 318.844 315.395C318.788 315.031 318.526 314.886 318.061 314.959L317.21 315.092L317.38 316.182ZM317.618 317.698L318.545 317.553C319.014 317.48 319.219 317.253 319.159 316.874C319.1 316.498 318.837 316.346 318.368 316.42L317.44 316.565L317.618 317.698Z" fill="#8F8F8F"/>
<path d="M329.978 295.891C329.656 295.941 329.366 295.915 329.108 295.811C328.85 295.705 328.635 295.533 328.464 295.295C328.296 295.053 328.184 294.757 328.129 294.407C328.074 294.053 328.089 293.737 328.177 293.459C328.267 293.18 328.419 292.952 328.633 292.775C328.847 292.598 329.115 292.484 329.437 292.433C329.756 292.384 330.044 292.41 330.302 292.514C330.563 292.616 330.777 292.787 330.945 293.025C331.116 293.263 331.229 293.557 331.284 293.908C331.34 294.262 331.322 294.58 331.233 294.862C331.146 295.14 330.994 295.369 330.777 295.55C330.563 295.727 330.297 295.841 329.978 295.891ZM329.911 295.46C330.245 295.408 330.487 295.254 330.637 294.999C330.789 294.74 330.833 294.405 330.769 293.994C330.704 293.582 330.562 293.278 330.342 293.081C330.121 292.883 329.842 292.811 329.504 292.864C329.169 292.916 328.926 293.07 328.773 293.326C328.624 293.581 328.581 293.915 328.645 294.326C328.71 294.737 328.852 295.043 329.073 295.244C329.297 295.441 329.576 295.513 329.911 295.46ZM332.298 296.365L331.798 293.171L332.271 293.097L332.333 293.494C332.379 293.349 332.465 293.227 332.589 293.126C332.714 293.024 332.866 292.96 333.044 292.932C333.251 292.899 333.439 292.921 333.608 292.996C333.779 293.07 333.921 293.192 334.032 293.36C334.146 293.525 334.223 293.732 334.262 293.981C334.3 294.229 334.291 294.451 334.233 294.647C334.179 294.841 334.081 295 333.941 295.124C333.803 295.243 333.63 295.319 333.423 295.352C333.251 295.379 333.09 295.366 332.942 295.314C332.796 295.259 332.678 295.171 332.587 295.051L332.781 296.29L332.298 296.365ZM333.245 294.997C333.446 294.966 333.594 294.869 333.689 294.707C333.788 294.545 333.816 294.328 333.774 294.057C333.731 293.786 333.639 293.59 333.495 293.469C333.355 293.344 333.184 293.297 332.984 293.328C332.783 293.36 332.633 293.457 332.534 293.619C332.438 293.778 332.412 293.993 332.454 294.264C332.496 294.535 332.588 294.733 332.728 294.858C332.872 294.982 333.044 295.029 333.245 294.997ZM335.966 294.953C335.673 294.999 335.443 294.959 335.276 294.831C335.109 294.704 335.004 294.498 334.959 294.215L334.783 293.086L334.328 293.157L334.27 292.784L334.724 292.713L334.614 292.01L335.097 291.935L335.207 292.637L335.929 292.524L335.988 292.897L335.265 293.01L335.436 294.101C335.463 294.27 335.518 294.392 335.601 294.467C335.688 294.541 335.813 294.566 335.975 294.541C336.026 294.533 336.075 294.52 336.121 294.503C336.167 294.483 336.213 294.461 336.258 294.437L336.391 294.789C336.348 294.825 336.285 294.858 336.201 294.887C336.121 294.919 336.043 294.941 335.966 294.953ZM336.219 291.926L336.14 291.423L336.704 291.335L336.783 291.837L336.219 291.926ZM336.712 294.793L336.346 292.459L336.829 292.384L337.195 294.717L336.712 294.793ZM338.895 294.495C338.659 294.532 338.447 294.514 338.26 294.443C338.072 294.371 337.916 294.253 337.793 294.089C337.672 293.922 337.592 293.714 337.553 293.466C337.514 293.217 337.527 292.996 337.591 292.803C337.659 292.606 337.771 292.445 337.927 292.319C338.084 292.194 338.28 292.112 338.516 292.075C338.746 292.039 338.954 292.057 339.142 292.129C339.329 292.201 339.485 292.321 339.609 292.487C339.733 292.651 339.814 292.857 339.853 293.106C339.892 293.354 339.878 293.577 339.811 293.774C339.743 293.967 339.631 294.127 339.474 294.252C339.318 294.378 339.124 294.459 338.895 294.495ZM338.836 294.122C339.034 294.091 339.182 293.994 339.281 293.832C339.38 293.67 339.408 293.453 339.365 293.182C339.323 292.911 339.23 292.715 339.087 292.594C338.944 292.469 338.773 292.422 338.575 292.453C338.374 292.485 338.225 292.582 338.126 292.744C338.027 292.903 337.998 293.118 338.041 293.389C338.083 293.66 338.176 293.858 338.32 293.982C338.463 294.107 338.636 294.153 338.836 294.122ZM340.578 294.187L340.213 291.854L340.682 291.781L340.742 292.168C340.8 292.015 340.892 291.891 341.017 291.797C341.146 291.701 341.296 291.64 341.469 291.613C342.02 291.527 342.345 291.796 342.443 292.421L342.668 293.86L342.185 293.936L341.964 292.525C341.933 292.324 341.87 292.184 341.776 292.104C341.685 292.024 341.556 291.996 341.391 292.022C341.196 292.053 341.05 292.139 340.951 292.282C340.855 292.421 340.823 292.591 340.855 292.792L341.061 294.112L340.578 294.187ZM344.158 293.671C343.967 293.701 343.784 293.705 343.611 293.683C343.437 293.658 343.288 293.61 343.162 293.538L343.25 293.191C343.381 293.256 343.52 293.299 343.667 293.322C343.818 293.344 343.965 293.344 344.108 293.321C344.277 293.295 344.4 293.245 344.476 293.171C344.553 293.097 344.583 293.009 344.567 292.907C344.554 292.824 344.516 292.764 344.451 292.729C344.386 292.69 344.295 292.667 344.176 292.659L343.707 292.639C343.293 292.619 343.059 292.444 343.007 292.112C342.973 291.892 343.033 291.703 343.188 291.545C343.343 291.387 343.562 291.286 343.846 291.241C344.009 291.216 344.167 291.215 344.321 291.24C344.478 291.265 344.614 291.317 344.728 291.397L344.64 291.744C344.531 291.676 344.411 291.629 344.28 291.604C344.149 291.579 344.023 291.576 343.901 291.595C343.736 291.621 343.615 291.673 343.539 291.75C343.462 291.824 343.432 291.913 343.448 292.019C343.473 292.178 343.595 292.264 343.812 292.275L344.28 292.295C344.494 292.304 344.661 292.35 344.782 292.432C344.906 292.514 344.981 292.639 345.007 292.808C345.042 293.031 344.982 293.221 344.827 293.375C344.671 293.527 344.448 293.626 344.158 293.671ZM347.126 293.163L347.061 292.747L347.826 292.627L347.453 290.245L346.914 290.712L346.655 290.375L347.507 289.649L347.856 289.595L348.318 292.55L349.036 292.437L349.101 292.853L347.126 293.163Z" fill="#263238"/>
<path d="M333.081 315.714C332.759 315.764 332.469 315.738 332.211 315.634C331.953 315.528 331.738 315.356 331.567 315.118C331.399 314.876 331.287 314.58 331.232 314.23C331.177 313.876 331.192 313.56 331.28 313.282C331.37 313.003 331.522 312.775 331.736 312.598C331.95 312.421 332.218 312.307 332.54 312.256C332.859 312.207 333.147 312.233 333.405 312.337C333.666 312.439 333.88 312.61 334.048 312.848C334.219 313.086 334.332 313.38 334.387 313.731C334.443 314.085 334.425 314.403 334.336 314.685C334.249 314.963 334.097 315.192 333.88 315.373C333.666 315.55 333.4 315.664 333.081 315.714ZM333.014 315.283C333.348 315.231 333.59 315.077 333.74 314.822C333.892 314.563 333.936 314.228 333.872 313.817C333.807 313.405 333.665 313.101 333.445 312.904C333.224 312.706 332.945 312.634 332.607 312.687C332.272 312.739 332.029 312.893 331.876 313.149C331.727 313.404 331.684 313.738 331.748 314.149C331.813 314.56 331.955 314.866 332.176 315.067C332.4 315.264 332.679 315.336 333.014 315.283ZM335.401 316.188L334.901 312.994L335.374 312.92L335.436 313.317C335.482 313.172 335.568 313.05 335.692 312.949C335.817 312.847 335.969 312.783 336.147 312.755C336.354 312.722 336.542 312.744 336.711 312.819C336.882 312.893 337.024 313.015 337.135 313.183C337.249 313.348 337.326 313.555 337.365 313.804C337.403 314.052 337.394 314.274 337.336 314.47C337.282 314.664 337.184 314.823 337.044 314.947C336.906 315.066 336.733 315.142 336.526 315.175C336.354 315.202 336.193 315.189 336.045 315.137C335.899 315.082 335.781 314.994 335.69 314.874L335.884 316.113L335.401 316.188ZM336.348 314.82C336.549 314.789 336.697 314.692 336.792 314.53C336.891 314.368 336.919 314.151 336.877 313.88C336.834 313.609 336.742 313.413 336.599 313.292C336.458 313.167 336.287 313.12 336.087 313.151C335.886 313.183 335.736 313.28 335.637 313.442C335.541 313.601 335.515 313.816 335.557 314.087C335.599 314.358 335.691 314.556 335.831 314.681C335.975 314.805 336.147 314.852 336.348 314.82ZM339.069 314.776C338.776 314.822 338.546 314.782 338.379 314.654C338.212 314.527 338.107 314.321 338.062 314.038L337.886 312.909L337.431 312.98L337.373 312.607L337.827 312.536L337.717 311.833L338.2 311.758L338.31 312.46L339.032 312.347L339.091 312.72L338.369 312.833L338.539 313.924C338.566 314.093 338.621 314.215 338.704 314.29C338.791 314.364 338.916 314.389 339.078 314.364C339.129 314.356 339.178 314.343 339.224 314.326C339.27 314.306 339.316 314.284 339.361 314.26L339.494 314.612C339.451 314.648 339.388 314.681 339.304 314.71C339.224 314.742 339.146 314.764 339.069 314.776ZM339.322 311.749L339.243 311.246L339.807 311.158L339.886 311.66L339.322 311.749ZM339.815 314.616L339.449 312.282L339.932 312.207L340.298 314.54L339.815 314.616ZM341.998 314.318C341.762 314.355 341.55 314.337 341.363 314.266C341.175 314.194 341.019 314.076 340.896 313.912C340.775 313.745 340.695 313.537 340.656 313.289C340.617 313.04 340.63 312.819 340.694 312.626C340.762 312.429 340.874 312.268 341.03 312.142C341.187 312.017 341.383 311.935 341.619 311.898C341.849 311.862 342.057 311.88 342.245 311.952C342.432 312.024 342.588 312.144 342.712 312.31C342.836 312.474 342.917 312.68 342.956 312.929C342.995 313.177 342.981 313.4 342.914 313.597C342.846 313.79 342.734 313.95 342.577 314.075C342.421 314.201 342.227 314.282 341.998 314.318ZM341.94 313.945C342.137 313.914 342.285 313.817 342.384 313.655C342.483 313.493 342.511 313.276 342.468 313.005C342.426 312.734 342.333 312.538 342.19 312.417C342.047 312.292 341.876 312.245 341.678 312.276C341.477 312.308 341.328 312.405 341.229 312.567C341.13 312.726 341.101 312.941 341.144 313.212C341.186 313.483 341.279 313.681 341.423 313.805C341.566 313.93 341.739 313.976 341.94 313.945ZM343.681 314.01L343.316 311.677L343.785 311.604L343.845 311.991C343.903 311.838 343.995 311.714 344.12 311.62C344.249 311.524 344.399 311.463 344.572 311.436C345.123 311.35 345.448 311.619 345.546 312.244L345.771 313.683L345.288 313.759L345.067 312.348C345.036 312.147 344.973 312.007 344.879 311.927C344.788 311.847 344.659 311.819 344.494 311.845C344.299 311.876 344.153 311.962 344.054 312.105C343.958 312.244 343.926 312.414 343.958 312.615L344.164 313.935L343.681 314.01ZM347.261 313.494C347.07 313.524 346.887 313.528 346.714 313.506C346.54 313.481 346.391 313.433 346.265 313.361L346.353 313.014C346.484 313.079 346.623 313.122 346.77 313.145C346.921 313.167 347.068 313.167 347.211 313.144C347.38 313.118 347.503 313.068 347.579 312.994C347.656 312.92 347.686 312.832 347.67 312.73C347.657 312.647 347.619 312.587 347.554 312.552C347.489 312.513 347.398 312.49 347.279 312.482L346.81 312.462C346.396 312.442 346.162 312.267 346.11 311.935C346.076 311.715 346.136 311.526 346.291 311.368C346.446 311.21 346.665 311.109 346.949 311.064C347.112 311.039 347.27 311.038 347.424 311.063C347.581 311.088 347.717 311.14 347.831 311.22L347.743 311.567C347.634 311.499 347.514 311.452 347.383 311.427C347.252 311.402 347.126 311.399 347.004 311.418C346.839 311.444 346.718 311.496 346.642 311.573C346.565 311.647 346.535 311.736 346.551 311.842C346.576 312.001 346.698 312.087 346.915 312.098L347.383 312.118C347.597 312.127 347.764 312.173 347.885 312.255C348.009 312.337 348.084 312.462 348.11 312.631C348.145 312.854 348.085 313.044 347.93 313.198C347.774 313.35 347.551 313.449 347.261 313.494ZM350.076 313.01L350.018 312.641L350.953 311.26C351.083 311.067 351.171 310.897 351.216 310.749C351.265 310.601 351.278 310.457 351.256 310.316C351.199 309.953 350.957 309.805 350.53 309.872C350.205 309.923 349.932 310.091 349.713 310.377L349.477 310.027C349.585 309.882 349.732 309.758 349.918 309.654C350.104 309.546 350.303 309.476 350.517 309.443C350.864 309.388 351.143 309.426 351.353 309.557C351.566 309.687 351.696 309.9 351.742 310.196C351.773 310.397 351.755 310.601 351.686 310.808C351.62 311.014 351.501 311.242 351.327 311.491L350.632 312.496L352.201 312.251L352.266 312.667L350.076 313.01Z" fill="#8F8F8F"/>
</g>
<rect width="31.6885" height="31.6885" rx="15.8442" transform="matrix(-0.562265 -0.826957 -0.826958 0.562264 121.976 132.047)" fill="#FE7C6E"/>
<path d="M101.745 118.453C103.425 118.453 104.881 118.765 106.113 119.388C107.344 120.011 108.286 120.887 108.937 122.017C109.604 123.147 109.937 124.451 109.937 125.928C109.937 127.116 109.727 128.239 109.307 129.296C108.901 130.354 108.307 131.208 107.525 131.86C106.743 132.512 105.816 132.838 104.744 132.838C103.99 132.838 103.382 132.686 102.918 132.382C102.455 132.063 102.158 131.614 102.028 131.034C101.607 131.599 101.064 132.049 100.398 132.382C99.7315 132.7 99.0289 132.86 98.2901 132.86C97.1892 132.86 96.3272 132.534 95.7043 131.882C95.0814 131.216 94.77 130.31 94.77 129.166C94.77 128.079 94.9945 127.065 95.4436 126.124C95.8927 125.182 96.5156 124.429 97.3123 123.864C98.109 123.284 99.0072 122.995 100.007 122.995C101.253 122.995 102.107 123.429 102.571 124.298L102.766 123.168H105.309L104.287 129.035C104.244 129.311 104.222 129.564 104.222 129.796C104.222 130.144 104.295 130.404 104.439 130.578C104.584 130.752 104.831 130.839 105.178 130.839C105.7 130.839 106.134 130.593 106.482 130.1C106.844 129.608 107.112 128.992 107.286 128.253C107.474 127.514 107.569 126.776 107.569 126.037C107.569 124.284 107.033 122.929 105.961 121.973C104.889 121.003 103.375 120.518 101.419 120.518C99.7532 120.518 98.2467 120.923 96.8994 121.734C95.5522 122.531 94.4947 123.625 93.727 125.015C92.9737 126.392 92.5971 127.927 92.5971 129.622C92.5971 131.418 93.1258 132.802 94.1833 133.772C95.2553 134.743 96.7691 135.228 98.7247 135.228C100.13 135.228 101.368 134.975 102.44 134.468L102.875 136.467C101.499 137.046 99.9705 137.336 98.2901 137.336C96.6677 137.336 95.248 137.024 94.0312 136.402C92.8143 135.793 91.8727 134.924 91.2064 133.794C90.54 132.664 90.2068 131.353 90.2068 129.861C90.2068 127.732 90.6994 125.798 91.6844 124.059C92.684 122.321 94.0602 120.952 95.813 119.953C97.5803 118.953 99.5577 118.453 101.745 118.453ZM99.2462 130.6C99.7677 130.6 100.246 130.448 100.68 130.144C101.115 129.839 101.455 129.434 101.702 128.927C101.962 128.42 102.093 127.876 102.093 127.297C102.093 126.689 101.926 126.196 101.593 125.819C101.26 125.443 100.796 125.254 100.202 125.254C99.6663 125.254 99.1955 125.421 98.7899 125.754C98.3843 126.073 98.0656 126.493 97.8338 127.015C97.6165 127.536 97.5079 128.087 97.5079 128.666C97.5079 129.26 97.6527 129.731 97.9424 130.078C98.2322 130.426 98.6668 130.6 99.2462 130.6Z" fill="white"/>
<defs>
<filter id="filter0_d_1_243" x="271.199" y="199.732" width="190.983" height="169.485" filterUnits="userSpaceOnUse" color-interpolation-filters="sRGB">
<feFlood flood-opacity="0" result="BackgroundImageFix"/>
<feColorMatrix in="SourceAlpha" type="matrix" values="0 0 0 0 0 0 0 0 0 0 0 0 0 0 0 0 0 0 127 0" result="hardAlpha"/>
<feOffset dx="6.62023" dy="6.62023"/>
<feGaussianBlur stdDeviation="13.7922"/>
<feComposite in2="hardAlpha" operator="out"/>
<feColorMatrix type="matrix" values="0 0 0 0 0.4625 0 0 0 0 0.4625 0 0 0 0 0.4625 0 0 0 0.1 0"/>
<feBlend mode="normal" in2="BackgroundImageFix" result="effect1_dropShadow_1_243"/>
<feBlend mode="normal" in="SourceGraphic" in2="effect1_dropShadow_1_243" result="shape"/>
</filter>
<linearGradient id="paint0_linear_1_243" x1="279.288" y1="193.871" x2="-59.055" y2="181.612" gradientUnits="userSpaceOnUse">
<stop stop-color="#F4FAFD"/>
<stop offset="1" stop-color="#EAF4FF" stop-opacity="0"/>
</linearGradient>
<linearGradient id="paint1_linear_1_243" x1="2.29737e-06" y1="252.647" x2="480.264" y2="55.1051" gradientUnits="userSpaceOnUse">
<stop offset="0.0117015" stop-color="white"/>
<stop offset="1" stop-color="#EBF5FF" stop-opacity="0"/>
</linearGradient>
<linearGradient id="paint2_linear_1_243" x1="381.067" y1="301.995" x2="61.9157" y2="6.68961" gradientUnits="userSpaceOnUse">
<stop offset="0.0117015" stop-color="white"/>
<stop offset="1" stop-color="#EBF5FF" stop-opacity="0"/>
</linearGradient>
</defs>
</svg>
