<svg width="543" height="479" viewBox="0 0 543 479" fill="none" xmlns="http://www.w3.org/2000/svg">
<path d="M543 0H236C105.661 0 0 105.661 0 236V236C0 366.339 105.661 472 236 472H543V0Z" fill="url(#paint0_linear_1_334)"/>
<circle cx="236" cy="236" r="208.665" stroke="url(#paint1_linear_1_334)" stroke-width="3"/>
<path d="M395.382 183.175C424.556 271.199 376.849 366.207 288.825 395.381C200.801 424.556 105.793 376.848 76.6182 288.824C47.4438 200.8 95.151 105.792 183.175 76.6176C271.199 47.4432 366.207 95.1504 395.382 183.175Z" stroke="url(#paint2_linear_1_334)" stroke-width="2.83788"/>
<path d="M236.169 138.152L413.621 306.787C418.991 311.933 417.81 316.04 416.749 319.726C415.689 323.412 412.508 328.12 407.052 329.623L268.054 368.283C265.063 368.951 261.968 368.936 259.024 368.238C256.08 367.539 253.372 366.178 251.124 364.266L73.6502 195.627C69.7221 191.898 69.9282 187.252 70.9886 183.566C72.0491 179.88 74.7957 174.301 80.2196 172.791L219.218 134.131C222.196 133.184 225.373 133.06 228.375 133.772C231.377 134.484 234.081 136.004 236.169 138.152V138.152Z" fill="#7A75B6"/>
<path d="M227.799 141.565L85.3711 181.12L263.089 349.765L258.142 366.941C255.186 366.3 252.475 364.935 250.274 362.981L73.4988 195.17C69.5854 191.459 69.7908 186.836 70.8472 183.168C71.9037 179.5 74.6399 173.948 80.0435 172.446L218.52 133.974C222.263 132.816 226.278 132.944 229.858 134.336L227.778 141.56L227.799 141.565Z" fill="#B2AEE0"/>
<path d="M411.129 307.386L234.002 139.001C232.211 137.484 230.056 136.403 227.714 135.847C225.373 135.291 222.911 135.277 220.531 135.805L84.7698 173.564C78.9352 175.186 77.6085 179.799 81.815 183.837L257.609 350.94C259.189 352.278 261.089 353.231 263.153 353.721C265.218 354.211 267.389 354.224 269.487 353.758L408.96 314.971C413.273 313.711 414.243 310.342 411.129 307.386Z" fill="#6058B2"/>
<path d="M139.979 242.729C140.765 243.536 141.336 244.512 141.647 245.581C141.957 246.649 141.998 247.778 141.767 248.878C141.698 249.251 141.527 249.603 141.27 249.896C141.013 250.189 140.68 250.414 140.306 250.546C139.838 250.665 138.069 251.187 137.591 251.304C137.155 251.374 136.71 251.333 136.302 251.187C135.893 251.04 135.536 250.792 135.266 250.468L118.127 234.187C117.337 233.382 116.762 232.405 116.45 231.336C116.138 230.267 116.096 229.137 116.328 228.035C116.393 227.675 116.553 227.335 116.794 227.047C117.035 226.759 117.348 226.533 117.703 226.391C118.19 226.243 120.023 225.736 120.505 225.61C120.941 225.54 121.385 225.58 121.794 225.727C122.202 225.874 122.559 226.121 122.83 226.446L139.979 242.729Z" fill="#6058B2"/>
<path d="M137.274 243.456L120.137 227.179C118.586 225.717 116.885 226.08 116.328 228.016C116.095 229.117 116.137 230.248 116.449 231.316C116.762 232.385 117.336 233.361 118.126 234.167L135.262 250.444C136.803 251.904 138.504 251.541 139.061 249.604C139.293 248.505 139.252 247.375 138.941 246.307C138.631 245.24 138.06 244.263 137.274 243.456Z" fill="#7A75B6"/>
<path d="M109.388 214.11C110.173 214.92 110.743 215.899 111.053 216.968C111.363 218.038 111.404 219.168 111.173 220.27C111.111 220.644 110.942 220.996 110.684 221.289C110.427 221.582 110.091 221.803 109.715 221.928C109.258 222.049 107.489 222.571 107.007 222.698C106.569 222.768 106.123 222.727 105.713 222.58C105.303 222.432 104.944 222.184 104.672 221.86L87.5146 205.64C86.7309 204.832 86.1612 203.855 85.8509 202.787C85.5405 201.719 85.4981 200.591 85.7271 199.491C85.7914 199.131 85.9517 198.79 86.1925 198.502C86.4333 198.214 86.7463 197.988 87.1014 197.846C87.5808 197.686 89.4144 197.179 89.8956 197.052C90.3335 196.983 90.7798 197.024 91.1897 197.171C91.5996 197.318 91.9588 197.566 92.2314 197.891L109.388 214.11Z" fill="#6058B2"/>
<path d="M106.671 214.878L89.535 198.6C87.9942 197.141 86.2905 197.514 85.733 199.45C85.5041 200.55 85.5465 201.679 85.8568 202.746C86.1671 203.814 86.7368 204.79 87.5203 205.598L104.657 221.876C106.208 223.338 107.912 222.965 108.466 221.039C108.698 219.936 108.657 218.804 108.345 217.734C108.033 216.664 107.46 215.686 106.671 214.878V214.878Z" fill="#7A75B6"/>
<path d="M237.144 148.558L400.012 303.388C402.981 306.211 402.06 309.45 397.943 310.58L271.755 345.689C269.489 346.2 267.142 346.191 264.91 345.661C262.678 345.131 260.626 344.097 258.925 342.644L94.6098 186.45C92.1975 184.154 92.3389 181.597 94.6984 180.105L95.2639 179.767C95.7205 179.56 96.1937 179.389 96.6782 179.257L132.173 169.384L134.484 168.736C135.188 168.578 135.917 168.582 136.611 168.747C137.304 168.911 137.942 169.232 138.472 169.682C139.029 170.139 139.697 170.459 140.419 170.615C141.141 170.771 141.897 170.759 142.623 170.579L183.987 159.08C185.342 158.699 185.715 157.679 184.791 156.802C183.867 155.924 184.15 155.058 185.186 154.634L185.424 154.559L220.179 144.916L220.913 144.706C223.78 144.072 226.746 144.091 229.567 144.76C232.388 145.429 234.984 146.731 237.144 148.558V148.558Z" fill="#BDB9E9"/>
<path d="M137.211 174.066C136.683 173.614 136.045 173.292 135.351 173.127C134.657 172.962 133.927 172.96 133.223 173.12L130.915 173.758L95.4157 183.634C94.9297 183.769 94.4555 183.943 93.9982 184.153L93.4356 184.481C93.4209 184.532 93.3283 184.576 93.2737 184.607C93.6098 185.276 94.0654 185.882 94.6207 186.398L258.956 342.628C260.658 344.082 262.71 345.116 264.942 345.646C267.174 346.176 269.522 346.185 271.788 345.674L398 310.57C398.759 310.365 399.479 310.039 400.128 309.604C399.8 308.928 399.345 308.318 398.784 307.803L235.896 152.937C233.733 151.104 231.131 149.798 228.304 149.127C225.477 148.456 222.504 148.439 219.631 149.077L218.897 149.287L185.078 158.683C185.078 158.683 184.111 162.044 183.996 162.445C183.892 162.703 183.72 162.933 183.496 163.111C183.273 163.289 183.006 163.409 182.722 163.46L141.352 174.961C140.628 175.137 139.875 175.147 139.155 174.991C138.436 174.836 137.77 174.519 137.211 174.066V174.066Z" fill="#DEE3EB"/>
<path opacity="0.65" d="M137.211 174.066C136.683 173.614 136.045 173.292 135.351 173.127C134.657 172.962 133.927 172.96 133.223 173.12L130.915 173.758L95.4157 183.634C94.9297 183.769 94.4555 183.943 93.9982 184.153L93.4356 184.481C93.4209 184.532 93.3283 184.576 93.2737 184.607C93.6098 185.276 94.0654 185.882 94.6207 186.398L258.956 342.628C260.658 344.082 262.71 345.116 264.942 345.646C267.174 346.176 269.522 346.185 271.788 345.674L398 310.57C398.759 310.365 399.479 310.039 400.128 309.604C399.8 308.928 399.345 308.318 398.784 307.803L235.896 152.937C233.733 151.104 231.131 149.798 228.304 149.127C225.477 148.456 222.504 148.439 219.631 149.077L218.897 149.287L185.078 158.683C185.078 158.683 184.111 162.044 183.996 162.445C183.892 162.703 183.72 162.933 183.496 163.111C183.273 163.289 183.006 163.409 182.722 163.46L141.352 174.961C140.628 175.137 139.875 175.147 139.155 174.991C138.436 174.836 137.77 174.519 137.211 174.066V174.066Z" fill="white"/>
<path d="M125.428 187.28C125.377 187.258 125.332 187.225 125.297 187.183L124.871 186.721L123.298 187.158C123.261 187.172 123.22 187.175 123.182 187.166C123.144 187.157 123.11 187.136 123.085 187.107L122.928 186.939L122.864 186.847C122.868 186.819 122.876 186.792 122.887 186.765L123.05 184.616L123.074 184.534L123.169 184.48L123.391 184.423C123.451 184.417 123.512 184.431 123.561 184.464C123.619 184.481 123.669 184.516 123.704 184.563L125.178 186.171L125.524 186.078C125.581 186.071 125.638 186.084 125.684 186.115C125.741 186.135 125.79 186.169 125.826 186.215L125.92 186.325C125.92 186.325 125.988 186.406 125.979 186.437C125.97 186.468 125.961 186.498 125.867 186.509L125.521 186.602L125.946 187.064C126 187.076 126.011 187.156 126.002 187.186C125.994 187.217 125.985 187.248 125.88 187.256L125.62 187.325C125.552 187.33 125.485 187.314 125.428 187.28V187.28ZM124.574 186.29L123.525 185.144L123.433 186.61L124.574 186.29Z" fill="#6058B2"/>
<path d="M127.04 186.532C126.48 186.348 125.986 186.023 125.611 185.589C125.192 185.139 125.023 184.737 125.105 184.373C125.187 184.008 125.512 183.789 126.07 183.637C126.293 183.568 126.523 183.527 126.756 183.514C126.967 183.499 127.179 183.509 127.387 183.543C127.421 183.54 127.455 183.548 127.483 183.566C127.483 183.584 127.478 183.602 127.468 183.617L127.513 183.858L127.438 183.841C127.123 183.797 126.8 183.822 126.493 183.912C126.119 184.021 125.9 184.188 125.845 184.417C125.791 184.645 125.92 184.95 126.242 185.3C126.515 185.621 126.874 185.865 127.282 186.008C127.644 186.132 128.041 186.142 128.416 186.035C128.539 186 128.659 185.956 128.774 185.901C128.864 185.861 128.946 185.806 129.015 185.739L128.327 184.995L127.669 185.179C127.613 185.18 127.558 185.167 127.509 185.14L127.367 185.041L127.273 184.931C127.219 184.918 127.208 184.839 127.217 184.808C127.226 184.777 127.232 184.757 127.326 184.746L128.379 184.459C128.442 184.434 128.512 184.431 128.575 184.45C128.637 184.478 128.691 184.517 128.736 184.565L129.716 185.642C129.744 185.669 129.766 185.7 129.781 185.734C129.786 185.747 129.787 185.76 129.783 185.773C129.779 185.786 129.771 185.798 129.761 185.806C129.502 186.111 129.138 186.317 128.738 186.386C128.197 186.602 127.603 186.653 127.04 186.532Z" fill="#6058B2"/>
<path d="M140.181 182.856C140.256 182.923 140.309 183.009 140.333 183.105C140.357 183.201 140.352 183.303 140.318 183.397C140.283 183.492 140.221 183.576 140.139 183.639C140.057 183.703 139.958 183.742 139.854 183.754C139.588 183.824 139.31 183.827 139.046 183.765C138.782 183.702 138.541 183.575 138.347 183.397C138.263 183.337 138.2 183.255 138.166 183.16C138.132 183.065 138.129 182.962 138.158 182.864C138.186 182.766 138.244 182.677 138.325 182.609C138.405 182.541 138.504 182.497 138.61 182.483C138.886 182.404 139.178 182.397 139.455 182.462C139.731 182.528 139.982 182.664 140.181 182.856V182.856Z" fill="#6058B2"/>
<path d="M137.686 181.401C137.315 181.449 136.973 181.63 136.731 181.908C136.49 182.185 136.367 182.538 136.389 182.893C136.412 182.974 136.462 183.047 136.53 183.1C136.598 183.153 136.682 183.185 136.771 183.192V183.192C137.027 183.253 137.256 183.132 137.237 182.962C137.222 182.712 137.307 182.464 137.476 182.268C137.645 182.071 137.885 181.942 138.146 181.905C138.853 181.743 139.59 181.825 140.226 182.136C140.461 182.192 140.743 182.204 140.83 182.06C140.866 181.937 140.813 181.803 140.632 181.717C139.73 181.281 138.686 181.17 137.686 181.401V181.401Z" fill="#6058B2"/>
<path d="M136.727 180.366C136.173 180.449 135.662 180.712 135.279 181.109C134.897 181.506 134.666 182.013 134.627 182.545C134.588 182.678 134.786 182.824 135.014 182.867C135.26 182.925 135.486 182.815 135.474 182.658C135.501 182.222 135.688 181.805 136.001 181.478C136.314 181.152 136.733 180.937 137.187 180.87C138.404 180.578 139.677 180.683 140.801 181.168C141.047 181.227 141.3 181.221 141.384 181.087C141.422 180.954 141.351 180.805 141.146 180.724C139.769 180.139 138.214 180.013 136.727 180.366V180.366Z" fill="#6058B2"/>
<path d="M108.395 192.182L107.577 191.297L109.253 190.828L110.069 191.724L108.395 192.182Z" fill="#6058B2"/>
<path d="M110.896 191.523L109.273 189.746L110.948 189.277L112.582 191.057L110.896 191.523Z" fill="#6058B2"/>
<path d="M113.406 190.867L110.968 188.195L112.643 187.727L115.081 190.399L113.406 190.867Z" fill="#6058B2"/>
<path d="M115.916 190.211L112.663 186.644L114.339 186.176L117.592 189.742L115.916 190.211Z" fill="#6058B2"/>
<path d="M218.671 159.689C218.405 159.574 218.105 159.545 217.815 159.607L211.538 161.343C211.129 161.454 211.086 161.839 211.445 162.221L212.92 163.843C213.14 164.076 213.419 164.251 213.732 164.354C213.866 164.402 214.006 164.435 214.149 164.453C214.296 164.472 214.446 164.463 214.59 164.426L220.868 162.69C221.277 162.579 221.319 162.194 220.971 161.815L219.486 160.19C219.263 159.96 218.983 159.789 218.671 159.689V159.689ZM213.756 164.151C213.624 164.096 213.507 164.012 213.415 163.906L211.927 162.291C211.676 162.012 211.708 161.702 212.006 161.619L218.284 159.882C218.36 159.859 218.44 159.852 218.519 159.861L218.657 159.894C218.783 159.951 218.896 160.029 218.99 160.127L220.476 161.752C220.737 162.033 220.694 162.341 220.396 162.424L214.119 164.161C213.999 164.196 213.871 164.192 213.756 164.151V164.151Z" fill="#6058B2"/>
<path d="M213.46 161.532L215.192 163.443L214.212 163.715C214.113 163.728 214.014 163.705 213.934 163.649L212.627 162.244C212.437 162.034 212.47 161.801 212.681 161.741L213.46 161.532Z" fill="#6058B2"/>
<path d="M213.918 161.434L215.098 161.1L216.841 163.015L215.663 163.339L213.918 161.434Z" fill="#6058B2"/>
<path d="M215.557 161.004L216.734 160.68L218.488 162.598L217.3 162.919L215.557 161.004Z" fill="#6058B2"/>
<path d="M218.485 160.375L219.738 161.768C219.973 162.021 219.814 162.257 219.33 162.394L218.932 162.508L217.201 160.597L218.131 160.335C218.251 160.304 218.378 160.319 218.485 160.375V160.375Z" fill="#6058B2"/>
<path d="M219.715 160.264C219.891 160.207 220.292 160.401 220.583 160.777L220.852 161.071C221.155 161.406 221.27 161.718 221.105 161.777L220.791 161.878L219.404 160.355L219.715 160.264Z" fill="#6058B2"/>
<path d="M202.266 165.108L207.573 162.539L208.562 166.207L206.071 164.706L202.266 165.108Z" fill="#6058B2"/>
<path d="M141.654 163.419L160.624 158.141C161.226 157.998 161.851 157.992 162.448 158.122C163.046 158.252 163.599 158.516 164.063 158.892C164.824 159.621 164.533 160.474 163.393 160.785L144.436 166.055C143.834 166.201 143.208 166.209 142.61 166.078C142.012 165.948 141.459 165.682 140.997 165.305C140.236 164.575 140.533 163.702 141.654 163.419Z" fill="#B2AEE0"/>
<path d="M169.784 155.22C170.487 155.062 171.214 155.066 171.906 155.23C172.597 155.394 173.233 155.714 173.761 156.164C173.978 156.302 174.143 156.502 174.233 156.737C174.323 156.971 174.333 157.229 174.263 157.474C174.192 157.718 174.045 157.938 173.84 158.103C173.635 158.268 173.384 158.369 173.12 158.393C172.417 158.546 171.691 158.54 171.001 158.376C170.31 158.212 169.673 157.895 169.143 157.45C168.926 157.311 168.761 157.111 168.671 156.877C168.581 156.642 168.571 156.384 168.641 156.14C168.712 155.895 168.859 155.675 169.064 155.51C169.269 155.345 169.52 155.244 169.784 155.22Z" fill="#B2AEE0"/>
<g opacity="0.3">
<path opacity="0.3" d="M329.446 192.214L297.521 174.76L269.282 297.672L301.207 315.126L329.446 192.214Z" fill="white"/>
<path opacity="0.3" d="M361.671 209.836L400.132 230.85L385.579 294.227L336.071 321.286L361.671 209.836Z" fill="white"/>
<path opacity="0.3" d="M444.139 262.21L426.678 271.762L432.068 248.305L444.127 254.892C447.824 256.917 447.835 260.206 444.139 262.21Z" fill="white"/>
</g>
<path d="M204.443 29.842L175.306 36.0025L180.195 54.8661L209.332 48.7056L204.443 29.842Z" fill="#DAE4FF"/>
<path d="M204.604 29.9649C204.612 29.9702 204.54 30.0757 204.397 30.2716C204.236 30.4858 204.024 30.7682 203.759 31.1208C203.178 31.8742 202.367 32.9264 201.37 34.2182C199.315 36.8397 196.502 40.4281 193.387 44.4026L193.321 44.4865L193.219 44.4397C193.141 44.4041 193.057 44.3655 192.972 44.3267C188.095 42.0758 183.682 40.0389 180.455 38.5497C178.879 37.8087 177.594 37.2049 176.675 36.7723C176.25 36.5667 175.91 36.4021 175.653 36.2774C175.421 36.1617 175.3 36.097 175.304 36.089C175.308 36.0811 175.436 36.13 175.676 36.2306C175.939 36.3444 176.286 36.4943 176.719 36.682C177.648 37.0965 178.945 37.6754 180.536 38.3856C183.771 39.8573 188.196 41.8703 193.086 44.0947C193.171 44.1335 193.255 44.1722 193.333 44.2079L193.165 44.2448C196.307 40.2886 199.143 36.7169 201.215 34.1075C202.24 32.8367 203.075 31.8014 203.674 31.0602C203.956 30.7196 204.181 30.4471 204.353 30.2403C204.511 30.0543 204.597 29.9594 204.604 29.9649Z" fill="white"/>
<path d="M180.044 54.8655C179.975 54.8322 181.505 51.8008 183.459 48.0953C185.414 44.3885 187.053 41.4115 187.121 41.4448C187.189 41.478 185.66 44.5089 183.705 48.2155C181.751 51.9211 180.111 54.8987 180.044 54.8655Z" fill="white"/>
<path d="M196.927 39.0041C196.973 38.9496 199.787 41.0251 203.211 43.6392C206.636 46.2541 209.375 48.4175 209.329 48.4722C209.283 48.5267 206.469 46.4517 203.044 43.8366C199.62 41.2225 196.881 39.0585 196.927 39.0041Z" fill="white"/>
<path d="M352.026 417.152L308.725 426.003L315.793 454.058L359.094 445.206L352.026 417.152Z" fill="#DAE4FF"/>
<path d="M352.273 417.342C352.285 417.35 352.177 417.505 351.963 417.795C351.722 418.111 351.404 418.528 351.007 419.049C350.137 420.161 348.922 421.715 347.431 423.622C344.354 427.493 340.143 432.791 335.479 438.659L335.38 438.783L335.229 438.713C335.114 438.659 334.989 438.601 334.863 438.542C327.647 435.153 321.117 432.085 316.343 429.842C314.011 428.727 312.111 427.818 310.75 427.166C310.122 426.857 309.619 426.609 309.238 426.421C308.895 426.247 308.717 426.15 308.723 426.138C308.729 426.127 308.918 426.201 309.273 426.352C309.662 426.524 310.175 426.75 310.817 427.033C312.191 427.657 314.11 428.529 316.464 429.599C321.252 431.816 327.8 434.849 335.035 438.199C335.16 438.258 335.285 438.316 335.401 438.37L335.151 438.423C339.854 432.582 344.099 427.309 347.2 423.457C348.735 421.581 349.986 420.052 350.881 418.958C351.303 418.455 351.641 418.053 351.897 417.748C352.133 417.473 352.262 417.333 352.273 417.342Z" fill="white"/>
<path d="M315.561 454.058C315.46 454.008 317.761 449.524 320.698 444.044C323.637 438.561 326.1 434.159 326.2 434.209C326.301 434.259 324.001 438.742 321.063 444.224C318.125 449.705 315.662 454.108 315.561 454.058Z" fill="white"/>
<path d="M340.783 430.675C340.852 430.595 345.006 433.703 350.061 437.616C355.117 441.53 359.158 444.768 359.089 444.848C359.02 444.929 354.867 441.822 349.811 437.907C344.757 433.994 340.714 430.755 340.783 430.675Z" fill="white"/>
<line x1="257.828" y1="296.182" x2="163.828" y2="207.182" stroke="#C8C6C6" stroke-width="0.5" stroke-dasharray="4 4"/>
<line x1="288.828" y1="287.182" x2="194.828" y2="198.182" stroke="#C8C6C6" stroke-width="0.5" stroke-dasharray="4 4"/>
<line x1="319.828" y1="278.182" x2="225.828" y2="189.182" stroke="#C8C6C6" stroke-width="0.5" stroke-dasharray="4 4"/>
<path d="M225.136 299.518L350.136 265.518" stroke="#6058B2" stroke-linecap="round"/>
<path d="M224.924 299.363L129.767 210" stroke="#6058B2" stroke-linecap="round"/>
<path d="M255.421 269.844L276.205 277.126L252.304 262.394L231.52 255.112L255.421 269.844Z" fill="#FE7C6E"/>
<path opacity="0.3" d="M231.52 255.112L255.421 269.844L276.205 277.126L252.304 262.394L231.52 255.112Z" fill="black"/>
<path d="M274.153 201.328L294.918 208.598L332.463 232.577L311.698 225.307L274.153 201.328Z" fill="#FE7C6E"/>
<path opacity="0.3" d="M274.153 201.328L294.918 208.598L332.463 232.577L311.698 225.307L274.153 201.328Z" fill="black"/>
<path d="M212.861 294.651L231.588 305.904L250.65 266.722L231.923 255.465L212.861 294.651Z" fill="#FE7C6E"/>
<path d="M256.702 265.354L276.04 277.294L294.005 207.953L273.444 200.739L256.702 265.354Z" fill="#FE7C6E"/>
<path d="M313.472 220.817L332.691 233.131L359.809 127.353L339.279 120.144L313.472 220.817Z" fill="#FE7C6E"/>
<path d="M333.511 118.239L368.319 130.43L358.443 95.0623L333.511 118.239Z" fill="#FE7C6E"/>
<defs>
<linearGradient id="paint0_linear_1_334" x1="222.421" y1="223.189" x2="597.397" y2="210.11" gradientUnits="userSpaceOnUse">
<stop stop-color="#F4FAFD"/>
<stop offset="1" stop-color="#EAF4FF" stop-opacity="0"/>
</linearGradient>
<linearGradient id="paint1_linear_1_334" x1="28.835" y1="303.145" x2="550.278" y2="88.6649" gradientUnits="userSpaceOnUse">
<stop offset="0.0117015" stop-color="white"/>
<stop offset="1" stop-color="#EBF5FF" stop-opacity="0"/>
</linearGradient>
<linearGradient id="paint2_linear_1_334" x1="92.5371" y1="341.365" x2="439.229" y2="20.5758" gradientUnits="userSpaceOnUse">
<stop offset="0.0117015" stop-color="white"/>
<stop offset="1" stop-color="#EBF5FF" stop-opacity="0"/>
</linearGradient>
</defs>
</svg>
