<svg width="107" height="26" viewBox="0 0 107 26" fill="none" xmlns="http://www.w3.org/2000/svg">
<g clip-path="url(#clip0_1_216)">
<path d="M95.5952 18.3074L106.042 13.4648C106.148 13.4158 106.265 13.3975 106.381 13.4121C106.496 13.4267 106.605 13.4735 106.695 13.5472C106.785 13.6209 106.852 13.7184 106.889 13.8285C106.925 13.9385 106.93 14.0566 106.902 14.1691L104.132 25.3039C104.103 25.418 104.042 25.5217 103.957 25.6025C103.871 25.6833 103.764 25.7379 103.647 25.7598C103.531 25.7816 103.411 25.7699 103.302 25.7258C103.192 25.6818 103.097 25.6072 103.029 25.5112L100.747 22.2993C100.719 22.2599 100.703 22.2132 100.701 22.1651C100.7 22.1169 100.713 22.0693 100.738 22.0283L103.412 17.7242C103.424 17.7062 103.43 17.6855 103.43 17.6643C103.431 17.6432 103.426 17.6222 103.416 17.6034L103.398 17.5773C103.38 17.5568 103.354 17.5434 103.327 17.5389C103.299 17.5346 103.271 17.5396 103.247 17.5531L103.224 17.5692L99.4965 21.0036C99.4609 21.0361 99.4165 21.0577 99.3687 21.0653C99.3211 21.0731 99.272 21.0667 99.228 21.0468L95.6025 19.4243C95.4946 19.376 95.403 19.298 95.3383 19.1994C95.2738 19.1009 95.239 18.9859 95.2383 18.8681C95.2375 18.7505 95.2707 18.6351 95.334 18.5357C95.3973 18.4363 95.4879 18.357 95.5952 18.3074Z" fill="url(#paint0_linear_1_216)"/>
<path d="M78.0035 5.75441C76.9659 5.75441 76.1878 5.5208 75.6688 5.05355C75.15 4.56172 74.8906 3.88546 74.8906 3.02476C74.8906 2.16405 75.2242 1.4509 75.8912 0.885295C76.5829 0.295099 77.4353 0 78.4483 0C79.3624 0 80.1036 0.221324 80.6718 0.663971C81.2401 1.10662 81.5242 1.7337 81.5242 2.54522C81.5242 3.52888 81.2031 4.31581 80.5608 4.90601C79.9184 5.47161 79.066 5.75441 78.0035 5.75441Z" fill="url(#paint1_linear_1_216)"/>
<path fill-rule="evenodd" clip-rule="evenodd" d="M77.7074 25.5629C76.1016 25.5629 74.9279 24.9973 74.1868 23.8661C73.4703 22.7349 73.112 21.2348 73.112 19.3658C73.112 18.9672 73.1296 18.5287 73.165 18.0503C71.8479 18.4454 70.4198 18.675 68.8809 18.7388C68.4114 20.8045 67.485 22.4643 66.1014 23.7185C64.7178 24.9481 63.149 25.5629 61.3948 25.5629C59.9125 25.5629 58.6401 25.2063 57.5777 24.4931C56.5401 23.78 55.7495 22.8333 55.206 21.6529C54.736 20.6322 54.4692 19.538 54.4056 18.3702C53.4145 18.6405 52.3692 18.7756 51.2695 18.7756C50.1825 18.7756 49.1571 18.6281 48.1936 18.3329C47.4771 19.4888 46.6865 20.6814 45.8218 21.9111C44.8336 23.3127 43.9812 24.2718 43.2646 24.7883C42.5482 25.3047 41.7329 25.5629 40.8187 25.5629C39.8058 25.5629 39.0028 25.1694 38.4099 24.3825C37.8779 23.6458 37.53 22.5105 37.3661 20.9765C37.3341 21.0187 37.3008 21.0597 37.2662 21.0995C36.2039 22.4028 35.0551 23.4726 33.8197 24.3088C32.6092 25.1448 31.2256 25.5629 29.669 25.5629C28.4091 25.5629 27.4578 25.2063 26.8155 24.4931C26.1731 23.7554 25.852 22.698 25.852 21.3208C25.852 20.6323 26.0249 19.4027 26.3708 17.6322C26.6919 16.0829 26.8525 15.0131 26.8525 14.4229C26.8525 14.0294 26.7166 13.8327 26.4449 13.8327C26.1236 13.8327 25.6666 14.2508 25.0736 15.087C24.5054 15.8984 23.9124 16.9805 23.2949 18.3329C22.7019 19.6855 22.2201 21.1119 21.8495 22.612C21.5777 23.7678 21.2565 24.5546 20.886 24.9727C20.5401 25.3661 19.9841 25.5629 19.2182 25.5629C18.2794 25.5629 17.6124 25.0711 17.2171 24.0874C17.0046 23.5236 16.8531 22.7657 16.7624 21.814C15.9174 22.6489 14.8389 23.4313 13.5267 24.1611C11.8714 25.0957 10.0925 25.5629 8.19015 25.5629C5.59599 25.5629 3.58242 24.862 2.14946 23.4604C0.716484 22.0586 0 20.1404 0 17.7059C0 16.0091 0.358242 14.4353 1.07473 12.9843C1.79122 11.5088 2.77946 10.3407 4.03949 9.48005C5.32421 8.61933 6.76954 8.18899 8.37545 8.18899C9.80842 8.18899 10.9573 8.61933 11.822 9.48005C12.6867 10.3161 13.1191 11.4597 13.1191 12.9106C13.1191 14.6074 12.5014 16.0705 11.2661 17.3002C10.0555 18.5051 7.9925 19.4641 5.07715 20.1774C5.69482 21.3086 6.86837 21.8742 8.59781 21.8742C9.70959 21.8742 10.9696 21.493 12.3779 20.7306C13.8109 19.9437 15.0462 18.9231 16.0838 17.669C16.2831 17.4375 16.4992 17.2839 16.7322 17.208C16.8929 14.7948 17.3263 12.4771 18.0323 10.2547C18.2547 9.54153 18.613 9.0251 19.107 8.70541C19.6258 8.36113 20.3424 8.18899 21.2565 8.18899C21.7506 8.18899 22.0965 8.25047 22.2941 8.37342C22.4918 8.49638 22.5907 8.72999 22.5907 9.07428C22.5907 9.46774 22.4053 10.353 22.0347 11.7302C21.7878 12.7138 21.5901 13.5745 21.4418 14.3123C21.2936 15.05 21.1701 15.9598 21.0712 17.042C21.8865 14.9271 22.8006 13.2057 23.8137 11.8777C24.8267 10.5498 25.8148 9.603 26.7784 9.03739C27.7666 8.47179 28.6685 8.18899 29.4837 8.18899C31.0897 8.18899 31.8926 8.98822 31.8926 10.5867C31.8926 11.5457 31.6209 13.2794 31.0774 15.7877C30.6079 17.9272 30.3732 19.3412 30.3732 20.0297C30.3732 21.0134 30.7314 21.5054 31.4479 21.5054C31.942 21.5054 32.5226 21.2102 33.1897 20.62C33.8814 20.0053 34.7955 19.0216 35.932 17.669C36.2286 17.3248 36.5622 17.1526 36.9327 17.1526C36.9822 17.1526 37.0301 17.1561 37.0761 17.1631C36.9523 15.1356 36.8904 13.2877 36.8904 11.6195V10.3285C36.9151 9.51693 37.1375 8.95133 37.5576 8.63164C37.9775 8.31195 38.6076 8.1521 39.4475 8.1521C40.0899 8.1521 40.5593 8.29965 40.8558 8.59475C41.177 8.86525 41.3376 9.3325 41.3376 9.99646C41.3376 12.8245 41.5106 16.501 41.8564 21.0258C43.3388 18.8371 44.4505 17.0911 45.1917 15.7877C44.8211 15.0746 44.6359 14.2262 44.6359 13.2425C44.6359 12.4064 44.8211 11.5949 45.1917 10.808C45.5623 10.0211 46.0688 9.38168 46.7112 8.88985C47.3535 8.39801 48.0824 8.1521 48.8978 8.1521C49.6142 8.1521 50.1947 8.41031 50.6395 8.92673C51.0843 9.41856 51.3066 10.144 51.3066 11.1031C51.3066 12.2097 51.0101 13.4762 50.4171 14.9025C51.356 14.8532 52.6036 14.6689 54.1602 14.3491L54.9136 14.2103C55.0648 13.7333 55.2487 13.2755 55.4654 12.8368C56.1819 11.3613 57.1701 10.2178 58.4301 9.40627C59.6901 8.57016 61.0861 8.1521 62.6178 8.1521C64.4956 8.1521 66.0027 8.80378 67.1392 10.1071C68.3002 11.3859 68.9797 12.972 69.1773 14.8656C70.3385 14.7918 71.7221 14.5458 73.3281 14.1279C73.4686 14.0928 73.5967 14.0703 73.7124 14.0602C73.9721 12.7142 74.2784 11.4457 74.6315 10.2547C74.8539 9.46774 75.1503 8.92673 75.5209 8.63164C75.8915 8.33653 76.4845 8.18899 77.2998 8.18899C78.5598 8.18899 79.1898 8.60704 79.1898 9.44316C79.1898 10.0579 78.9551 11.4843 78.4856 13.7221C77.8928 16.4271 77.5962 18.2592 77.5962 19.2183C77.5962 19.9561 77.6951 20.5217 77.8928 20.9151C78.0905 21.3086 78.4239 21.5054 78.8934 21.5054C79.338 21.5054 79.8939 21.1979 80.5611 20.5831C81.2214 19.9745 82.0996 19.0166 83.1957 17.7091V17.7059C83.1957 16.0091 83.554 14.4353 84.2705 12.9843C84.9869 11.5088 85.9752 10.3407 87.2352 9.48005C88.5199 8.61933 89.9652 8.18899 91.5712 8.18899C93.0041 8.18899 94.153 8.61933 95.0177 9.48005C95.8825 10.3161 96.3148 11.4597 96.3148 12.9106C96.3148 14.6074 95.6971 16.0705 94.4619 17.3002C93.2512 18.5051 91.1759 19.4641 88.2358 20.1774C88.8287 21.3086 89.7026 22.2689 91.1264 22.4546C91.2415 22.4696 91.3547 22.486 91.4674 22.5023C92.3995 22.637 93.3081 22.7684 95.1266 22.1046C95.1652 22.0906 95.2046 22.0764 95.2447 22.0618C95.2986 22.0425 95.3539 22.0226 95.4106 22.0023C95.9921 21.7939 96.7159 21.5345 97.4966 21.133L97.5013 21.1337L99.0379 21.8289C99.3135 21.9386 99.7633 21.8069 100.016 21.6203C99.851 21.8442 99.7176 22.2392 100.016 22.6631C100.407 23.2193 100.598 23.451 100.644 23.4973L100.648 23.5025C99.0989 24.44 97.829 24.7599 96.5534 25.0813C96.4657 25.1034 96.3778 25.1255 96.29 25.1479C94.496 25.6033 92.7507 25.9305 91.1264 25.9305C89.2764 25.7922 86.4693 24.862 85.1599 23.4604C84.6937 22.9526 84.3106 22.3825 84.0104 21.7501C81.7722 24.2919 79.6713 25.5629 77.7074 25.5629ZM5.41069 13.3901C6.05306 12.3327 6.83131 11.8039 7.74545 11.8039C8.19015 11.8039 8.53605 11.9515 8.78311 12.2466C9.05487 12.5171 9.19076 12.886 9.19076 13.3532C9.19076 14.263 8.77075 15.0624 7.93074 15.7509C7.09072 16.4394 5.94188 16.9559 4.48421 17.3002V17.2263C4.48421 15.7263 4.79303 14.4475 5.41069 13.3901ZM63.7297 20.6938C63.1614 21.3331 62.482 21.6529 61.6914 21.6529C60.9749 21.6529 60.3448 21.2962 59.8013 20.5831C59.2825 19.87 59.0231 18.8371 59.0231 17.4845C59.0231 15.7631 59.3442 14.4353 59.9866 13.5008C60.6536 12.5417 61.4813 12.0622 62.4696 12.0622H62.6549C62.5808 12.4556 62.5437 12.8491 62.5437 13.2425C62.5437 14.177 62.7414 15.0624 63.1367 15.8984C63.5568 16.7346 64.1496 17.4108 64.9155 17.9272C64.7178 19.1323 64.3225 20.0544 63.7297 20.6938ZM88.6064 13.3901C89.2488 12.3327 90.027 11.8039 90.9412 11.8039C91.3858 11.8039 91.7317 11.9515 91.9788 12.2466C92.2506 12.5171 92.3864 12.886 92.3864 13.3532C92.3864 14.263 91.9665 15.0624 91.1264 15.7509C90.2865 16.4394 89.1376 16.9559 87.6799 17.3002V17.2263C87.6799 15.7263 87.9888 14.4475 88.6064 13.3901Z" fill="url(#paint2_linear_1_216)"/>
</g>
<defs>
<linearGradient id="paint0_linear_1_216" x1="106.924" y1="23.8212" x2="92.7072" y2="12.7569" gradientUnits="userSpaceOnUse">
<stop stop-color="#FB5F66"/>
<stop offset="1" stop-color="#FF8C73"/>
</linearGradient>
<linearGradient id="paint1_linear_1_216" x1="23.9309" y1="8.91743" x2="109.027" y2="30.6396" gradientUnits="userSpaceOnUse">
<stop stop-color="#FB6668"/>
<stop offset="1" stop-color="#FD736C"/>
</linearGradient>
<linearGradient id="paint2_linear_1_216" x1="23.9313" y1="8.91745" x2="109.027" y2="30.6396" gradientUnits="userSpaceOnUse">
<stop stop-color="#FB6668"/>
<stop offset="1" stop-color="#FD736C"/>
</linearGradient>
<clipPath id="clip0_1_216">
<rect width="107" height="26" fill="white"/>
</clipPath>
</defs>
</svg>
